<?xml version="1.0" encoding="UTF-8" standalone="no"?>
<!-- Casper banner: logo.svg artwork on a Nord Deep (#2E3440) background -->

<svg
   width="729.07446"
   height="119.85024"
   viewBox="0 0 729.07446 119.85024"
   version="1.1"
   id="banner"
   sodipodi:docname="banner.svg"
   inkscape:version="1.2.2 (b0a84865, 2022-12-01)"
   xmlns:inkscape="http://www.inkscape.org/namespaces/inkscape"
   xmlns:sodipodi="http://sodipodi.sourceforge.net/DTD/sodipodi-0.dtd"
   xmlns="http://www.w3.org/2000/svg"
   xmlns:svg="http://www.w3.org/2000/svg">
  <defs
     id="defs203" />
  <sodipodi:namedview
     id="namedview201"
     pagecolor="#ffffff"
     bordercolor="#cccccc"
     borderopacity="1"
     inkscape:showpageshadow="0"
     inkscape:pageopacity="1"
     inkscape:pagecheckerboard="0"
     inkscape:deskcolor="#d1d1d1"
     showgrid="false"
     inkscape:zoom="1.0978454"
     inkscape:cx="354.78583"
     inkscape:cy="124.33444"
     inkscape:window-width="1440"
     inkscape:window-height="841"
     inkscape:window-x="0"
     inkscape:window-y="31"
     inkscape:window-maximized="0"
     inkscape:current-layer="banner" />
  <rect
     width="729.07446"
     height="119.85024"
     fill="#2e3440"
     id="rect191"
     x="0"
     y="0"
     style="stroke-width:0.615835" />
  <g
     transform="matrix(1.5541754,0,0,1.5541754,311.03984,7.8348563)"
     id="g198">
    <g
       id="layer1">
      <path
         style="fill:#ffffff;fill-opacity:1;stroke:none;stroke-width:8.51037;stroke-opacity:1"
         d="m 109.58127,107.74112 c 0.52138,-0.46004 1.04276,-0.92008 1.57422,-1.51718 0.53146,-0.59709 1.07298,-1.3312 1.49517,-2.17751 0.42219,-0.84631 0.72502,-1.80476 0.96222,-2.80442 0.23721,-0.99966 0.40878,-2.040447 0.41597,-3.003651 0.007,-0.963204 -0.15002,-1.848731 -0.48932,-2.828229 -0.3393,-0.979497 -0.86066,-2.052902 -1.38205,-2.896312 -0.52138,-0.84341 -1.04275,-1.456785 -1.65614,-2.039505 -0.61339,-0.58272 -1.31877,-1.134756 -1.84015,-1.502789 -0.52138,-0.368033 -0.85874,-0.552046 -0.70538,-0.720729 0.15335,-0.168682 0.79739,-0.322025 1.57946,-0.536713 0.78208,-0.214687 1.70214,-0.490704 2.14685,-0.705393 0.4447,-0.214689 0.41404,-0.368019 -0.13802,-0.659386 -0.55206,-0.291367 -1.62546,-0.720727 -2.69889,-0.981416 -1.07344,-0.260689 -2.14684,-0.352695 -3.31228,-0.368029 -1.16545,-0.01533 -2.42286,0.046 -3.55763,0.199352 -1.13478,0.153349 -2.146846,0.398698 -3.082266,0.705394 -0.93542,0.306696 -1.794143,0.67472 -2.591551,1.104095 -0.797408,0.429374 -1.533455,0.920073 -2.238855,1.518131 -0.7054,0.598058 -1.38011,1.303435 -1.916826,2.05484 -0.536716,0.751405 -0.935409,1.548791 -1.196099,2.28486 -0.26069,0.73607 -0.383364,1.410778 -0.475372,2.131514 -0.09201,0.720736 -0.153345,1.48745 -0.09201,2.376869 0.06134,0.88942 0.245352,1.901486 0.490708,2.729557 0.245357,0.82808 0.552042,1.47212 0.598045,1.9475 0.046,0.47538 -0.168675,0.78206 -0.416928,1.15825 -0.248254,0.37618 -0.530061,0.82183 -0.601482,1.36864 -0.07142,0.5468 0.06755,1.19469 0.361812,1.73431 0.294261,0.53962 0.743772,0.9709 1.305912,1.34419 0.56214,0.3733 1.236848,0.68856 1.926913,0.95451 0.690065,0.26594 1.395432,0.48255 2.116174,0.66657 0.720741,0.18402 1.456786,0.33543 1.962833,0.41114 0.506047,0.0757 0.782066,0.0757 0.920077,0.39774 0.13801,0.32203 0.13801,0.96607 0.122675,1.62547 -0.01534,0.6594 -0.04601,1.33411 -0.09201,2.02418 -0.04601,0.69006 -0.107342,1.39544 -0.09201,2.31553 0.01533,0.92008 0.107341,2.05483 0.245354,3.00558 0.138012,0.95075 0.322026,1.71747 0.582719,2.46888 0.260687,0.7514 0.598047,1.48745 0.966077,2.14685 0.36804,0.65939 0.76673,1.24209 1.44146,2.0395 0.67474,0.79741 1.62547,1.80948 2.17752,2.19284 0.55205,0.38336 0.70539,0.13802 0.95075,-0.18401 0.24535,-0.32204 0.58271,-0.72073 1.05809,-0.99675 0.47538,-0.27603 1.08875,-0.42937 1.82482,-0.50605 0.73607,-0.0767 1.59479,-0.0767 2.3922,-0.0153 0.79741,0.0613 1.53346,0.18401 2.40754,0.27602 0.87409,0.092 1.88615,0.15335 2.80623,0.15335 0.92009,0 1.74815,-0.0613 2.42288,-0.36804 0.67472,-0.3067 1.19609,-0.85873 1.57946,-1.61014 0.38337,-0.7514 0.62872,-1.70213 0.82807,-2.69889 0.19935,-0.99676 0.35269,-2.0395 0.59805,-2.91358 0.24536,-0.87408 0.58272,-1.57946 1.11944,-2.30019 0.53671,-0.72074 1.27276,-1.45679 1.91682,-1.97817 0.64406,-0.52138 1.1961,-0.82807 1.74814,-1.13476"
         id="path1"
         transform="matrix(1.4100444,0,0,1.4100444,-117.68667,-118.63597)" />
      <path
         style="fill:#000000;stroke:none;stroke-width:18.5447"
         d="m 86.2264,214.60493 c 0,-0.55562 0,-1.66687 0.300341,-2.52283 0.300342,-0.85596 0.901002,-1.45662 1.54673,-1.77197 0.645729,-0.31535 1.336489,-0.34539 1.952184,-0.16518 0.615694,0.18021 1.156288,0.57064 1.516692,1.08121 0.360403,0.51058 0.5406,1.14127 0.645718,1.80202 0.105118,0.66075 0.135151,1.35151 0.13515,2.16243 0,0.81091 -0.03003,1.74193 -0.255288,2.46274 -0.225256,0.72081 -0.645718,1.23137 -1.216362,1.53171 -0.570645,0.30033 -1.291439,0.39043 -1.9672,0.27029 -0.67576,-0.12013 -1.306453,-0.45049 -1.741943,-0.96107 -0.43549,-0.51058 -0.675754,-1.20134 -0.795888,-1.787 -0.120134,-0.58566 -0.120134,-1.06619 -0.120134,-1.30646 0,-0.24026 0,-0.24027 0,-0.79589 z"
         id="path2"
         transform="matrix(0.60139566,0,0,0.69624657,-36.89861,-128.91489)" />
      <path
         style="fill:#000000;stroke:none;stroke-width:18.5447"
         d="m 86.2264,214.60493 c 0,-0.55562 0,-1.66687 0.300341,-2.52283 0.300342,-0.85596 0.901002,-1.45662 1.54673,-1.77197 0.645729,-0.31535 1.336489,-0.34539 1.952184,-0.16518 0.615694,0.18021 1.156288,0.57064 1.516692,1.08121 0.360403,0.51058 0.5406,1.14127 0.645718,1.80202 0.105118,0.66075 0.135151,1.35151 0.13515,2.16243 0,0.81091 -0.03003,1.74193 -0.255288,2.46274 -0.225256,0.72081 -0.645718,1.23137 -1.216362,1.53171 -0.570645,0.30033 -1.291439,0.39043 -1.9672,0.27029 -0.67576,-0.12013 -1.306453,-0.45049 -1.741943,-0.96107 -0.43549,-0.51058 -0.675754,-1.20134 -0.795888,-1.787 -0.120134,-0.58566 -0.120134,-1.06619 -0.120134,-1.30646 0,-0.24026 0,-0.24027 0,-0.79589 z"
         id="path3"
         transform="matrix(0.60139566,0,0,0.69624657,-27.62963,-128.91489)" />
      <path
         style="fill:#000000;stroke:none;stroke-width:6.61782"
         d="m 96.31946,103.25105 c 0.158665,0.0297 0.476002,0.0891 0.79127,0.1462 0.315268,0.0571 0.62842,0.11203 0.958704,0.14857 0.330284,0.0365 0.677647,0.0547 1.024557,0.0669 0.34691,0.0122 0.693408,0.0183 0.877329,0.0169 0.18392,-0.001 0.20031,-0.008 0.15364,0.12542 -0.0467,0.13342 -0.143927,0.36717 -0.249417,0.57701 -0.10549,0.20984 -0.210507,0.37487 -0.375544,0.54741 -0.165036,0.17254 -0.390076,0.35257 -0.660131,0.4876 -0.270056,0.13503 -0.585118,0.22504 -0.866428,0.21754 -0.281311,-0.008 -0.528856,-0.11252 -0.765154,-0.2588 -0.236299,-0.14628 -0.461342,-0.33382 -0.61987,-0.52649 -0.158529,-0.19267 -0.250534,-0.39046 -0.312392,-0.60327 -0.06186,-0.21282 -0.09356,-0.44065 -0.113103,-0.60962 -0.01954,-0.16897 -0.01813,-0.14786 -0.0145,-0.25943 0.0036,-0.11156 0.0016,-0.11315 0.0069,-0.109 0.0053,0.004 0.0055,0.003 0.164125,0.033 z"
         id="path5"
         transform="matrix(1.7739126,-0.08992771,0.08626856,1.8491545,-161.56827,-155.56198)" />
    </g>
  </g>
</svg>
